<?xml version="1.0" encoding="UTF-8" standalone="no"?>
<svg
   width="154"
   height="32"
   viewBox="0 0 154 32"
   fill="none"
   version="1.1"
   id="svg19"
   sodipodi:docname="logo.svg"
   xml:space="preserve"
   inkscape:version="1.4.3 (0d15f75, 2025-12-25)"
   xmlns:inkscape="http://www.inkscape.org/namespaces/inkscape"
   xmlns:sodipodi="http://sodipodi.sourceforge.net/DTD/sodipodi-0.dtd"
   xmlns="http://www.w3.org/2000/svg"
   xmlns:svg="http://www.w3.org/2000/svg"><sodipodi:namedview
     id="namedview19"
     pagecolor="#ffffff"
     bordercolor="#000000"
     borderopacity="0.25"
     inkscape:showpageshadow="2"
     inkscape:pageopacity="0.0"
     inkscape:pagecheckerboard="0"
     inkscape:deskcolor="#d1d1d1"
     inkscape:zoom="5.6568543"
     inkscape:cx="95.371027"
     inkscape:cy="27.311999"
     inkscape:window-width="1920"
     inkscape:window-height="1009"
     inkscape:window-x="1912"
     inkscape:window-y="-8"
     inkscape:window-maximized="1"
     inkscape:current-layer="svg19" /><defs
     id="defs19"><filter
       id="filter0_d_1608_324"
       x="7.42383"
       y="6.2373"
       width="5.36841"
       height="20.5264"
       filterUnits="userSpaceOnUse"
       color-interpolation-filters="sRGB"><feFlood
         flood-opacity="0"
         result="BackgroundImageFix"
         id="feFlood13" /><feColorMatrix
         in="SourceAlpha"
         type="matrix"
         values="0 0 0 0 0 0 0 0 0 0 0 0 0 0 0 0 0 0 127 0"
         result="hardAlpha"
         id="feColorMatrix13" /><feOffset
         dy="0.5"
         id="feOffset13" /><feGaussianBlur
         stdDeviation="0.5"
         id="feGaussianBlur13" /><feComposite
         in2="hardAlpha"
         operator="out"
         id="feComposite13" /><feColorMatrix
         type="matrix"
         values="0 0 0 0 0 0 0 0 0 0 0 0 0 0 0 0 0 0 0.12 0"
         id="feColorMatrix14" /><feBlend
         mode="normal"
         in2="BackgroundImageFix"
         result="effect1_dropShadow_1608_324"
         id="feBlend14" /><feBlend
         mode="normal"
         in="SourceGraphic"
         in2="effect1_dropShadow_1608_324"
         result="shape"
         id="feBlend15" /></filter><filter
       id="filter1_d_1608_324"
       x="13.7422"
       y="12.9727"
       width="5.36841"
       height="13.7896"
       filterUnits="userSpaceOnUse"
       color-interpolation-filters="sRGB"><feFlood
         flood-opacity="0"
         result="BackgroundImageFix"
         id="feFlood15" /><feColorMatrix
         in="SourceAlpha"
         type="matrix"
         values="0 0 0 0 0 0 0 0 0 0 0 0 0 0 0 0 0 0 127 0"
         result="hardAlpha"
         id="feColorMatrix15" /><feOffset
         dy="0.5"
         id="feOffset15" /><feGaussianBlur
         stdDeviation="0.5"
         id="feGaussianBlur15" /><feComposite
         in2="hardAlpha"
         operator="out"
         id="feComposite15" /><feColorMatrix
         type="matrix"
         values="0 0 0 0 0 0 0 0 0 0 0 0 0 0 0 0 0 0 0.12 0"
         id="feColorMatrix16" /><feBlend
         mode="normal"
         in2="BackgroundImageFix"
         result="effect1_dropShadow_1608_324"
         id="feBlend16" /><feBlend
         mode="normal"
         in="SourceGraphic"
         in2="effect1_dropShadow_1608_324"
         result="shape"
         id="feBlend17" /></filter><filter
       id="filter2_d_1608_324"
       x="20.0547"
       y="8.76172"
       width="5.36841"
       height="18"
       filterUnits="userSpaceOnUse"
       color-interpolation-filters="sRGB"><feFlood
         flood-opacity="0"
         result="BackgroundImageFix"
         id="feFlood17" /><feColorMatrix
         in="SourceAlpha"
         type="matrix"
         values="0 0 0 0 0 0 0 0 0 0 0 0 0 0 0 0 0 0 127 0"
         result="hardAlpha"
         id="feColorMatrix17" /><feOffset
         dy="0.5"
         id="feOffset17" /><feGaussianBlur
         stdDeviation="0.5"
         id="feGaussianBlur17" /><feComposite
         in2="hardAlpha"
         operator="out"
         id="feComposite17" /><feColorMatrix
         type="matrix"
         values="0 0 0 0 0 0 0 0 0 0 0 0 0 0 0 0 0 0 0.12 0"
         id="feColorMatrix18" /><feBlend
         mode="normal"
         in2="BackgroundImageFix"
         result="effect1_dropShadow_1608_324"
         id="feBlend18" /><feBlend
         mode="normal"
         in="SourceGraphic"
         in2="effect1_dropShadow_1608_324"
         result="shape"
         id="feBlend19" /></filter><linearGradient
       id="pccBlue"
       x1="32"
       y1="32"
       x2="480"
       y2="480"
       gradientUnits="userSpaceOnUse"
       gradientTransform="matrix(1.1373694,0,0,1.1373694,-35.166578,-35.166578)"><stop
         offset="0%"
         stop-color="#60a5fa"
         id="stop1" /><stop
         offset="100%"
         stop-color="#1e40af"
         id="stop2" /></linearGradient></defs><rect
     style="display:none;fill:#000000;stroke-width:0.741693"
     id="rect19"
     width="154.01575"
     height="32.002243"
     x="-0.00038697571"
     y="0.00051001459"
     sodipodi:insensitive="true" /><g
     id="g19"
     transform="matrix(0.06160411,0,0,0.06160411,0.29417328,0.21653289)"><rect
       x="1.2292441"
       y="1.2292441"
       width="509.5415"
       height="509.5415"
       rx="113.73695"
       fill="url(#pccBlue)"
       id="rect2"
       style="fill:url(#pccBlue);stroke-width:1.13737" /><path
       d="M 146.81253,165.01044 55.822978,256 146.81253,346.98956"
       fill="none"
       stroke="#93c5fd"
       stroke-width="45.4948"
       stroke-linecap="round"
       stroke-linejoin="round"
       opacity="0.5"
       id="path2-0" /><path
       d="M 365.18747,165.01044 456.17702,256 365.18747,346.98956"
       fill="none"
       stroke="#93c5fd"
       stroke-width="45.4948"
       stroke-linecap="round"
       stroke-linejoin="round"
       opacity="0.5"
       id="path3-9" /><path
       d="M 219.60418,146.81253 V 365.18747"
       fill="none"
       stroke="#ffffff"
       stroke-width="54.5937"
       stroke-linecap="round"
       id="path4-4" /><path
       d="M 310.59373,146.81253 219.60418,256 310.59373,365.18747"
       fill="none"
       stroke="#ffffff"
       stroke-width="54.5937"
       stroke-linecap="round"
       stroke-linejoin="round"
       id="path5-8" /></g><path
     style="font-weight:bold;font-size:29.4634px;fill:#000000;stroke-width:2.45529"
     d="m 60.977348,26.609472 h -5.067705 l -5.509656,-8.868483 -1.885657,1.355316 v 7.513167 H 44.065357 V 5.5726048 h 4.448973 v 9.6345322 q 0.441951,-0.618732 0.883902,-1.237463 0.441951,-0.618732 0.883902,-1.237463 L 55.96857,5.5726048 h 4.949851 l -7.336386,9.3104342 z m 15.527199,0 -1.620487,-4.949851 h -7.424777 l -1.620487,4.949851 H 60.977335 L 68.372648,5.4842146 h 5.53912 l 7.45424,21.1252574 z M 72.379671,13.321479 q -0.117854,-0.441951 -0.383024,-1.325853 -0.235708,-0.883902 -0.471415,-1.797267 -0.235707,-0.9428293 -0.383024,-1.5320973 -0.117854,0.6776582 -0.353561,1.5615603 -0.206244,0.854439 -0.412487,1.708877 -0.206244,0.824975 -0.353561,1.38478 l -1.502634,4.566827 h 5.332876 z m 24.042116,7.45424 q 0,2.799023 -2.032975,4.478437 -2.003511,1.64995 -5.715899,1.64995 -3.329364,0 -5.951607,-1.266926 v -4.154339 q 1.502633,0.648194 3.093657,1.207999 1.620487,0.530341 3.211511,0.530341 1.64995,0 2.327608,-0.618731 0.707122,-0.648195 0.707122,-1.620487 0,-0.795512 -0.559805,-1.355316 -0.530341,-0.559805 -1.443706,-1.031219 -0.913366,-0.500878 -2.091902,-1.060683 -0.736585,-0.353561 -1.591023,-0.824975 -0.854439,-0.500878 -1.649951,-1.207999 -0.766048,-0.736585 -1.266926,-1.767804 -0.500878,-1.031219 -0.500878,-2.474926 0,-2.8284865 1.915121,-4.3900466 1.915121,-1.5910236 5.215022,-1.5910236 1.64995,0 3.12312,0.3830242 1.502634,0.3830242 3.123121,1.0901458 L 94.88969,10.227822 Q 93.445984,9.6385539 92.296911,9.3144565 91.147838,8.9903591 89.939839,8.9903591 q -1.266926,0 -1.944584,0.589268 -0.677659,0.5892679 -0.677659,1.5320969 0,1.119609 1.001756,1.767804 1.001756,0.648195 2.975803,1.591024 1.620487,0.766048 2.740097,1.591023 1.149072,0.824975 1.767804,1.944585 0.618731,1.119609 0.618731,2.769559 z M 106.70453,5.5726048 q 4.06595,0 6.01054,1.7088771 1.94458,1.6794138 1.94458,4.7730711 0,1.856194 -0.76605,3.476681 -0.76605,1.620487 -2.56331,2.622243 -1.76781,1.001755 -4.80254,1.001755 h -1.91512 v 7.45424 h -4.5079 V 5.5726048 Z m -0.14731,3.6829249 h -1.94459 v 6.1873143 h 1.50263 q 1.8562,0 2.91688,-0.736585 1.09015,-0.736585 1.09015,-2.504389 0,-1.414243 -0.88391,-2.180292 -0.85443,-0.7660483 -2.68116,-0.7660483 z m 21.06634,-0.2357072 q -2.53385,0 -4.00702,1.9151215 -1.44371,1.885657 -1.44371,5.215021 0,3.329365 1.38478,5.185559 1.41424,1.82673 4.24273,1.82673 1.38478,0 2.6517,-0.324097 1.29639,-0.324097 2.59278,-0.824975 v 3.830242 q -2.50439,1.060682 -5.74536,1.060682 -3.35883,0 -5.53912,-1.325853 -2.15083,-1.355316 -3.21151,-3.771315 -1.03122,-2.445462 -1.03122,-5.686436 0,-3.182047 1.17854,-5.627509 1.17853,-2.4454627 3.44722,-3.8302424 2.26868,-1.3847798 5.53912,-1.3847798 1.56156,0 3.15258,0.3535608 1.62049,0.3240974 3.06419,1.031219 l -1.47317,3.5945344 q -1.06068,-0.5008775 -2.26868,-0.8544383 -1.17854,-0.3830242 -2.53385,-0.3830242 z m 18.32622,0 q -2.53385,0 -4.00702,1.9151215 -1.44371,1.885657 -1.44371,5.215021 0,3.329365 1.38478,5.185559 1.41425,1.82673 4.24273,1.82673 1.38478,0 2.65171,-0.324097 1.29639,-0.324097 2.59278,-0.824975 v 3.830242 q -2.50439,1.060682 -5.74536,1.060682 -3.35883,0 -5.53912,-1.325853 -2.15083,-1.355316 -3.21151,-3.771315 -1.03122,-2.445462 -1.03122,-5.686436 0,-3.182047 1.17853,-5.627509 1.17854,-2.4454627 3.44722,-3.8302424 2.26868,-1.3847798 5.53912,-1.3847798 1.56156,0 3.15258,0.3535608 1.62049,0.3240974 3.0642,1.031219 l -1.47317,3.5945344 Q 149.69164,9.7564075 148.48364,9.4028467 147.3051,9.0198225 145.94978,9.0198225 Z"
     id="text19"
     aria-label="KASPCC" /></svg>
